<svg width="52" height="56" viewBox="0 0 53 56" fill="none" xmlns="http://www.w3.org/2000/svg">
<path d="M26.064 14.6378C26.8859 14.6378 27.6741 14.3113 28.2553 13.7302C28.8364 13.149 29.1629 12.3608 29.1629 11.5389C29.1629 10.717 28.8364 9.92876 28.2553 9.3476C27.6741 8.76643 26.8859 8.43994 26.064 8.43994C25.2421 8.43994 24.4539 8.76643 23.8727 9.3476C23.2916 9.92876 22.9651 10.717 22.9651 11.5389C22.9651 12.3608 23.2916 13.149 23.8727 13.7302C24.4539 14.3113 25.2421 14.6378 26.064 14.6378Z" fill="#A08F36"/>
<path d="M48.3723 42.3922V22.5382H48.7181C52.0382 22.5382 53.4027 18.2737 50.6886 16.3515L28.9347 0.914438C28.0965 0.319562 27.0941 0 26.0663 0C25.0384 0 24.036 0.319562 23.1979 0.914438L1.44024 16.3515C-1.26273 18.2737 0.0906187 22.5382 3.41077 22.5382H3.75654V42.3922C1.52204 43.8273 0.0385667 46.3333 0.0385667 49.1849V54.141C0.0385667 54.634 0.234424 55.1069 0.583052 55.4555C0.93168 55.8041 1.40452 56 1.89756 56H50.2313C50.7243 56 51.1971 55.8041 51.5458 55.4555C51.8944 55.1069 52.0903 54.634 52.0903 54.141V49.1849C52.0903 46.3333 50.6105 43.8273 48.3723 42.3959V42.3922ZM25.3506 3.94831C25.5598 3.80009 25.8099 3.72048 26.0663 3.72048C26.3227 3.72048 26.5728 3.80009 26.782 3.94831L47.7477 18.8202H4.38488L25.3506 3.94831ZM44.6543 22.5382V41.1504C44.4489 41.1351 44.2431 41.1277 44.0371 41.1281H37.2183V22.5382H44.6543ZM7.47452 41.1504V22.5382H14.9105V41.1281H8.09542C7.88825 41.1276 7.68113 41.1351 7.47452 41.1504ZM8.09542 44.8461H44.0371C46.4315 44.8461 48.3723 46.7868 48.3723 49.1849V52.282H3.75654V49.1849C3.75654 46.7868 5.70105 44.8461 8.09542 44.8461ZM24.2054 41.1281H18.6285V22.5382H24.2054V41.1281ZM27.9234 41.1281V22.5382H33.5004V41.1281H27.9234Z" fill="#A08F36"/>
</svg>
