<svg width="56" height="56" viewBox="0 0 56 56" fill="none" xmlns="http://www.w3.org/2000/svg">
<path d="M31.5 33.25V43.75C31.5 44.2141 31.6844 44.6592 32.0126 44.9874C32.3408 45.3156 32.7859 45.5 33.25 45.5H43.75C44.2141 45.5 44.6592 45.3156 44.9874 44.9874C45.3156 44.6592 45.5 44.2141 45.5 43.75V33.25C45.5 32.7859 45.3156 32.3408 44.9874 32.0126C44.6592 31.6844 44.2141 31.5 43.75 31.5H33.25C32.7859 31.5 32.3408 31.6844 32.0126 32.0126C31.6844 32.3408 31.5 32.7859 31.5 33.25ZM35 42V35H42V42H35Z" fill="#A08F36"/>
<path d="M10.5 0C10.2435 9.61803e-05 9.99015 0.0565781 9.7579 0.165447C9.52564 0.274316 9.32016 0.432909 9.156 0.63L0.406 11.13C0.143847 11.4444 0.000184182 11.8407 0 12.25V17.5C0 20.608 1.351 23.4045 3.5 25.326V54.25C3.5 54.7141 3.68437 55.1592 4.01256 55.4874C4.34075 55.8156 4.78587 56 5.25 56H50.75C51.2141 56 51.6592 55.8156 51.9874 55.4874C52.3156 55.1592 52.5 54.7141 52.5 54.25V25.326C54.649 23.401 56 20.608 56 17.5V12.25V12.187C56 11.872 56 11.62 55.594 11.13L46.844 0.63C46.6798 0.432909 46.4744 0.274316 46.2421 0.165447C46.0098 0.0565781 45.7565 9.61803e-05 45.5 0H10.5ZM10.5 24.5C8.64348 24.5 6.86301 23.7625 5.55025 22.4497C4.2375 21.137 3.5 19.3565 3.5 17.5V14H17.5V17.5C17.5 19.3565 16.7625 21.137 15.4497 22.4497C14.137 23.7625 12.3565 24.5 10.5 24.5ZM28 24.5C26.1435 24.5 24.363 23.7625 23.0503 22.4497C21.7375 21.137 21 19.3565 21 17.5V14H35V17.5C35 19.3565 34.2625 21.137 32.9497 22.4497C31.637 23.7625 29.8565 24.5 28 24.5ZM45.5 24.5C43.6435 24.5 41.863 23.7625 40.5503 22.4497C39.2375 21.137 38.5 19.3565 38.5 17.5V14H52.5V17.5C52.5 19.3565 51.7625 21.137 50.4497 22.4497C49.137 23.7625 47.3565 24.5 45.5 24.5ZM10.5 52.5H7V27.405C9.20605 28.1869 11.6102 28.2086 13.83 27.4666C16.0498 26.7245 17.9577 25.2614 19.25 23.31C20.2078 24.7535 21.5082 25.9373 23.035 26.7557C24.5619 27.5741 26.2677 28.0016 28 28C29.7327 28.0012 31.4386 27.5732 32.9655 26.7541C34.4924 25.9351 35.7926 24.7506 36.75 23.3065C38.0423 25.2579 39.9502 26.721 42.17 27.4631C44.3898 28.2051 46.794 28.1835 49 27.4015V52.5H28V33.25C28 32.7859 27.8156 32.3408 27.4874 32.0126C27.1593 31.6844 26.7141 31.5 26.25 31.5H12.25C11.7859 31.5 11.3408 31.6844 11.0126 32.0126C10.6844 32.3408 10.5 32.7859 10.5 33.25V52.5ZM17.99 10.5H5.488L11.319 3.5H20.321L17.99 10.5ZM34.321 10.5H21.679L24.01 3.5H31.99L34.321 10.5ZM38.01 10.5L35.679 3.5H44.681L50.5155 10.5H38.01ZM14 52.5V35H24.5V52.5H14Z" fill="#A08F36"/>
</svg>
