<svg width="52" height="56" viewBox="0 0 52 56" fill="none" xmlns="http://www.w3.org/2000/svg">
<path d="M14.4443 11.4872C14.4443 12.2488 14.1399 12.9793 13.5982 13.5178C13.0564 14.0564 12.3216 14.3589 11.5554 14.3589C10.7892 14.3589 10.0544 14.0564 9.51265 13.5178C8.97088 12.9793 8.66652 12.2488 8.66652 11.4872C8.66652 10.7255 8.97088 9.99505 9.51265 9.45649C10.0544 8.91792 10.7892 8.61536 11.5554 8.61536C12.3216 8.61536 13.0564 8.91792 13.5982 9.45649C14.1399 9.99505 14.4443 10.7255 14.4443 11.4872Z" fill="#A08F36"/>
<path d="M11.5554 22.9743C12.3216 22.9743 13.0564 22.6717 13.5982 22.1332C14.1399 21.5946 14.4443 20.8642 14.4443 20.1025C14.4443 19.3409 14.1399 18.6104 13.5982 18.0718C13.0564 17.5333 12.3216 17.2307 11.5554 17.2307C10.7892 17.2307 10.0544 17.5333 9.51265 18.0718C8.97088 18.6104 8.66652 19.3409 8.66652 20.1025C8.66652 20.8642 8.97088 21.5946 9.51265 22.1332C10.0544 22.6717 10.7892 22.9743 11.5554 22.9743Z" fill="#A08F36"/>
<path d="M14.4443 28.718C14.4443 29.4796 14.1399 30.2101 13.5982 30.7487C13.0564 31.2872 12.3216 31.5898 11.5554 31.5898C10.7892 31.5898 10.0544 31.2872 9.51265 30.7487C8.97088 30.2101 8.66652 29.4796 8.66652 28.718C8.66652 27.9563 8.97088 27.2259 9.51265 26.6873C10.0544 26.1488 10.7892 25.8462 11.5554 25.8462C12.3216 25.8462 13.0564 26.1488 13.5982 26.6873C14.1399 27.2259 14.4443 27.9563 14.4443 28.718Z" fill="#A08F36"/>
<path d="M14.4443 37.3333C14.4443 38.095 14.1399 38.8254 13.5982 39.364C13.0564 39.9026 12.3216 40.2051 11.5554 40.2051C10.7892 40.2051 10.0544 39.9026 9.51265 39.364C8.97088 38.8254 8.66652 38.095 8.66652 37.3333C8.66652 36.5717 8.97088 35.8412 9.51265 35.3027C10.0544 34.7641 10.7892 34.4615 11.5554 34.4615C12.3216 34.4615 13.0564 34.7641 13.5982 35.3027C14.1399 35.8412 14.4443 36.5717 14.4443 37.3333Z" fill="#A08F36"/>
<path d="M11.5554 48.8205C12.3216 48.8205 13.0564 48.5179 13.5982 47.9794C14.1399 47.4408 14.4443 46.7103 14.4443 45.9487C14.4443 45.1871 14.1399 44.4566 13.5982 43.918C13.0564 43.3795 12.3216 43.0769 11.5554 43.0769C10.7892 43.0769 10.0544 43.3795 9.51265 43.918C8.97088 44.4566 8.66652 45.1871 8.66652 45.9487C8.66652 46.7103 8.97088 47.4408 9.51265 47.9794C10.0544 48.5179 10.7892 48.8205 11.5554 48.8205Z" fill="#A08F36"/>
<path d="M31.7776 40.2051C32.5438 40.2051 33.2786 39.9026 33.8204 39.364C34.3621 38.8254 34.6665 38.095 34.6665 37.3333C34.6665 36.5717 34.3621 35.8412 33.8204 35.3027C33.2786 34.7641 32.5438 34.4615 31.7776 34.4615C31.0114 34.4615 30.2766 34.7641 29.7349 35.3027C29.1931 35.8412 28.8887 36.5717 28.8887 37.3333C28.8887 38.095 29.1931 38.8254 29.7349 39.364C30.2766 39.9026 31.0114 40.2051 31.7776 40.2051Z" fill="#A08F36"/>
<path d="M40.4446 40.2051C41.2108 40.2051 41.9456 39.9026 42.4874 39.364C43.0291 38.8254 43.3335 38.095 43.3335 37.3333C43.3335 36.5717 43.0291 35.8412 42.4874 35.3027C41.9456 34.7641 41.2108 34.4615 40.4446 34.4615C39.6784 34.4615 38.9436 34.7641 38.4019 35.3027C37.8601 35.8412 37.5557 36.5717 37.5557 37.3333C37.5557 38.095 37.8601 38.8254 38.4019 39.364C38.9436 39.9026 39.6784 40.2051 40.4446 40.2051Z" fill="#A08F36"/>
<path d="M40.4446 31.5898C41.2108 31.5898 41.9456 31.2872 42.4874 30.7487C43.0291 30.2101 43.3335 29.4796 43.3335 28.718C43.3335 27.9563 43.0291 27.2259 42.4874 26.6873C41.9456 26.1488 41.2108 25.8462 40.4446 25.8462C39.6784 25.8462 38.9436 26.1488 38.4019 26.6873C37.8601 27.2259 37.5557 27.9563 37.5557 28.718C37.5557 29.4796 37.8601 30.2101 38.4019 30.7487C38.9436 31.2872 39.6784 31.5898 40.4446 31.5898Z" fill="#A08F36"/>
<path d="M34.6665 28.718C34.6665 29.4796 34.3621 30.2101 33.8204 30.7487C33.2786 31.2872 32.5438 31.5898 31.7776 31.5898C31.0114 31.5898 30.2766 31.2872 29.7349 30.7487C29.1931 30.2101 28.8887 29.4796 28.8887 28.718C28.8887 27.9563 29.1931 27.2259 29.7349 26.6873C30.2766 26.1488 31.0114 25.8462 31.7776 25.8462C32.5438 25.8462 33.2786 26.1488 33.8204 26.6873C34.3621 27.2259 34.6665 27.9563 34.6665 28.718Z" fill="#A08F36"/>
<path d="M40.4446 22.9743C41.2108 22.9743 41.9456 22.6717 42.4874 22.1332C43.0291 21.5946 43.3335 20.8642 43.3335 20.1025C43.3335 19.3409 43.0291 18.6104 42.4874 18.0718C41.9456 17.5333 41.2108 17.2307 40.4446 17.2307C39.6784 17.2307 38.9436 17.5333 38.4019 18.0718C37.8601 18.6104 37.5557 19.3409 37.5557 20.1025C37.5557 20.8642 37.8601 21.5946 38.4019 22.1332C38.9436 22.6717 39.6784 22.9743 40.4446 22.9743Z" fill="#A08F36"/>
<path d="M34.6665 20.1025C34.6665 20.8642 34.3621 21.5946 33.8204 22.1332C33.2786 22.6717 32.5438 22.9743 31.7776 22.9743C31.0114 22.9743 30.2766 22.6717 29.7349 22.1332C29.1931 21.5946 28.8887 20.8642 28.8887 20.1025C28.8887 19.3409 29.1931 18.6104 29.7349 18.0718C30.2766 17.5333 31.0114 17.2307 31.7776 17.2307C32.5438 17.2307 33.2786 17.5333 33.8204 18.0718C34.3621 18.6104 34.6665 19.3409 34.6665 20.1025Z" fill="#A08F36"/>
<path d="M31.7778 8.61539V6.46154C31.7778 4.74783 31.093 3.10431 29.874 1.89254C28.655 0.680767 27.0017 0 25.2778 0H6.5C4.77609 0 3.12279 0.680767 1.90381 1.89254C0.684819 3.10431 0 4.74783 0 6.46154V53.8462C0 55.0351 0.970667 56 2.16667 56H49.8333C50.408 56 50.9591 55.7731 51.3654 55.3692C51.7717 54.9652 52 54.4174 52 53.8462V15.0769C52 13.3632 51.3152 11.7197 50.0962 10.5079C48.8772 9.29615 47.2239 8.61539 45.5 8.61539H31.7778ZM4.33333 6.46154C4.33333 5.8903 4.56161 5.34246 4.96794 4.93854C5.37426 4.53461 5.92536 4.30769 6.5 4.30769H25.2778C25.8524 4.30769 26.4035 4.53461 26.8098 4.93854C27.2162 5.34246 27.4444 5.8903 27.4444 6.46154V8.61539H26.7222C24.9983 8.61539 23.345 9.29615 22.126 10.5079C20.907 11.7197 20.2222 13.3632 20.2222 15.0769V51.6923H4.33333V6.46154ZM33.2222 51.6923V47.3846H39V51.6923H33.2222ZM43.3333 45.2308C43.3333 44.6595 43.1051 44.1117 42.6987 43.7078C42.2924 43.3038 41.7413 43.0769 41.1667 43.0769H31.0556C30.4809 43.0769 29.9298 43.3038 29.5235 43.7078C29.1172 44.1117 28.8889 44.6595 28.8889 45.2308V51.6923H24.5556V15.0769C24.5556 14.5057 24.7838 13.9578 25.1902 13.5539C25.5965 13.15 26.1476 12.9231 26.7222 12.9231H45.5C46.0746 12.9231 46.6257 13.15 47.0321 13.5539C47.4384 13.9578 47.6667 14.5057 47.6667 15.0769V51.6923H43.3333V45.2308Z" fill="#A08F36"/>
</svg>
