<svg width="52" height="60" viewBox="0 0 52 60" fill="none" xmlns="http://www.w3.org/2000/svg">
<path d="M13.9955 27.0111C13.9955 27.8065 13.6795 28.5693 13.1171 29.1317C12.5547 29.6941 11.7919 30.0101 10.9965 30.0101C10.2011 30.0101 9.43831 29.6941 8.87588 29.1317C8.31346 28.5693 7.9975 27.8065 7.9975 27.0111C7.9975 26.2157 8.31346 25.4529 8.87588 24.8905C9.43831 24.3281 10.2011 24.0121 10.9965 24.0121C11.7919 24.0121 12.5547 24.3281 13.1171 24.8905C13.6795 25.4529 13.9955 26.2157 13.9955 27.0111Z" fill="#A08F36"/>
<path d="M20.993 30.0101C21.7884 30.0101 22.5512 29.6941 23.1136 29.1317C23.6761 28.5693 23.992 27.8065 23.992 27.0111C23.992 26.2157 23.6761 25.4529 23.1136 24.8905C22.5512 24.3281 21.7884 24.0121 20.993 24.0121C20.1976 24.0121 19.4348 24.3281 18.8724 24.8905C18.31 25.4529 17.994 26.2157 17.994 27.0111C17.994 27.8065 18.31 28.5693 18.8724 29.1317C19.4348 29.6941 20.1976 30.0101 20.993 30.0101Z" fill="#A08F36"/>
<path d="M13.9955 37.0077C13.9955 37.8031 13.6795 38.5659 13.1171 39.1283C12.5547 39.6907 11.7919 40.0067 10.9965 40.0067C10.2011 40.0067 9.43831 39.6907 8.87588 39.1283C8.31346 38.5659 7.9975 37.8031 7.9975 37.0077C7.9975 36.2123 8.31346 35.4495 8.87588 34.8871C9.43831 34.3246 10.2011 34.0087 10.9965 34.0087C11.7919 34.0087 12.5547 34.3246 13.1171 34.8871C13.6795 35.4495 13.9955 36.2123 13.9955 37.0077Z" fill="#A08F36"/>
<path d="M20.993 40.0067C21.7884 40.0067 22.5512 39.6907 23.1136 39.1283C23.6761 38.5659 23.992 37.8031 23.992 37.0077C23.992 36.2123 23.6761 35.4495 23.1136 34.8871C22.5512 34.3246 21.7884 34.0087 20.993 34.0087C20.1976 34.0087 19.4348 34.3246 18.8724 34.8871C18.31 35.4495 17.994 36.2123 17.994 37.0077C17.994 37.8031 18.31 38.5659 18.8724 39.1283C19.4348 39.6907 20.1976 40.0067 20.993 40.0067Z" fill="#A08F36"/>
<path d="M41.9861 49.0038C41.9861 49.7991 41.6701 50.562 41.1077 51.1244C40.5453 51.6868 39.7825 52.0028 38.9871 52.0028C38.1917 52.0028 37.4289 51.6868 36.8665 51.1244C36.3041 50.562 35.9881 49.7991 35.9881 49.0038C35.9881 48.2084 36.3041 47.4456 36.8665 46.8831C37.4289 46.3207 38.1917 46.0048 38.9871 46.0048C39.7825 46.0048 40.5453 46.3207 41.1077 46.8831C41.6701 47.4456 41.9861 48.2084 41.9861 49.0038Z" fill="#A08F36"/>
<path d="M38.9871 42.0059C39.3809 42.0059 39.7709 41.9284 40.1348 41.7776C40.4986 41.6269 40.8292 41.406 41.1077 41.1275C41.3862 40.8491 41.6071 40.5185 41.7578 40.1546C41.9085 39.7907 41.9861 39.4008 41.9861 39.0069C41.9861 38.6131 41.9085 38.2231 41.7578 37.8593C41.6071 37.4954 41.3862 37.1648 41.1077 36.8863C40.8292 36.6078 40.4986 36.3869 40.1348 36.2362C39.7709 36.0855 39.3809 36.0079 38.9871 36.0079C38.1917 36.0079 37.4289 36.3239 36.8665 36.8863C36.3041 37.4487 35.9881 38.2116 35.9881 39.0069C35.9881 39.8023 36.3041 40.5651 36.8665 41.1275C37.4289 41.69 38.1917 42.0059 38.9871 42.0059Z" fill="#A08F36"/>
<path d="M11.996 0C11.4657 0 10.9572 0.210643 10.5823 0.585591C10.2073 0.960539 9.99667 1.46908 9.99667 1.99933V8.00933H6.21793C5.68767 8.00933 5.17913 8.21997 4.80419 8.59492C4.42924 8.96987 4.2186 9.47841 4.2186 10.0087V16.9583C2.94293 17.6423 1.87679 18.6596 1.13385 19.9018C0.39091 21.144 -0.000966846 22.5646 1.79135e-06 24.012V57.9927C1.79135e-06 58.5229 0.210646 59.0315 0.585593 59.4064C0.960541 59.7814 1.46908 59.992 1.99934 59.992H29.8221C29.8779 59.9969 29.9339 59.9996 29.99 60H49.9833C50.5136 60 51.0221 59.7894 51.3971 59.4144C51.772 59.0395 51.9827 58.5309 51.9827 58.0007V42.006C51.9827 37.2337 50.0869 32.6568 46.7124 29.2823C43.3378 25.9078 38.761 24.012 33.9887 24.012H31.9893C31.9893 21.141 30.4778 18.6258 28.2106 17.2143V10.0087C28.2106 9.47841 28 8.96987 27.625 8.59492C27.2501 8.21997 26.7415 8.00933 26.2113 8.00933H21.9927V1.99933C21.9927 1.46908 21.782 0.960539 21.4071 0.585591C21.0321 0.210643 20.5236 0 19.9933 0H11.996ZM23.992 16.0147H8.21726V12.008H24.2119V16.0147H23.992ZM27.9907 55.9933H23.992V48.02C23.992 46.9595 23.5707 45.9424 22.8208 45.1925C22.0709 44.4426 21.0539 44.0213 19.9933 44.0213H11.996C10.9355 44.0213 9.91842 44.4426 9.16852 45.1925C8.41862 45.9424 7.99734 46.9595 7.99734 48.02V55.9933H3.99867V24.012C3.99867 22.9515 4.41996 21.9344 5.16985 21.1845C5.91975 20.4346 6.93682 20.0133 7.99734 20.0133H23.992C25.0525 20.0133 26.0696 20.4346 26.8195 21.1845C27.5694 21.9344 27.9907 22.9515 27.9907 24.012V55.9933ZM11.996 55.9933V48.02H19.9933V55.9933H11.996ZM47.984 56.0013H31.9893V28.0107H33.9887C37.7005 28.0107 41.2602 29.4852 43.8849 32.1098C46.5095 34.7344 47.984 38.2942 47.984 42.006V56.0013ZM17.994 8.00933H13.9953V3.99867H17.994V8.00933Z" fill="#A08F36"/>
</svg>
