<svg width="50" height="42" viewBox="0 0 50 42" fill="none" xmlns="http://www.w3.org/2000/svg">
<path d="M27.4432 9.73827C27.4432 12.3371 28.1416 14.5477 29.5385 16.3698C31.663 19.1181 35.7664 19.4467 38.1527 18.909C39.1422 24.6743 34.3695 32.0228 28.1999 35.1892L32.9435 42C42.2561 37.4595 51.3942 27.0043 49.8226 13.8307C48.8332 5.49644 44.1478 0 37.5125 0C34.6023 0 32.1868 0.866283 30.2952 2.62873C28.3745 4.39118 27.4432 6.75107 27.4432 9.73827ZM0 9.73827C0 12.3371 0.698444 14.5477 2.09534 16.3698C4.21979 19.1181 8.32318 19.4467 10.7095 18.909C11.699 24.6743 6.92628 32.0228 0.756653 35.1892L5.50028 42C14.8129 37.4595 23.951 27.0043 22.3794 13.8307C21.39 5.49644 16.7046 0 10.0693 0C7.15909 0 4.74363 0.866283 2.85199 2.62873C0.931259 4.39118 0 6.75107 0 9.73827Z" fill="#A08F36"/>
</svg>
